<?xml version="1.0" encoding="UTF-8" standalone="no"?>
<!DOCTYPE svg PUBLIC "-//W3C//DTD SVG 1.1//EN" "http://www.w3.org/Graphics/SVG/1.1/DTD/svg11.dtd">
<!-- Created with Vectornator (http://vectornator.io/) -->
<svg height="100%" stroke-miterlimit="10" style="fill-rule:nonzero;clip-rule:evenodd;stroke-linecap:round;stroke-linejoin:round;" version="1.1" viewBox="0 0 1024 1024" width="100%" xml:space="preserve" xmlns="http://www.w3.org/2000/svg" xmlns:vectornator="http://vectornator.io" xmlns:xlink="http://www.w3.org/1999/xlink">
<defs>
<linearGradient gradientTransform="matrix(1 0 0 1 0 0)" gradientUnits="userSpaceOnUse" id="LinearGradient" x1="371.501" x2="627.845" y1="464.857" y2="464.857">
<stop offset="0" stop-color="#b850d8"/>
<stop offset="0.976143" stop-color="#f4c065"/>
<stop offset="1" stop-color="#f4c065"/>
</linearGradient>
</defs>
<g id="Layer-2" vectornator:layerName="Layer 2">
<path d="M493.969 387.062C492.442 386.97 490.832 387.213 489.156 387.844C485.298 389.295 482.9 392.119 480.75 396.062C480.048 397.35 479.411 398.709 478.875 400.031C478.551 400.831 478.334 401.47 478.188 401.906C478.102 402.161 478.03 402.426 477.969 402.688C477.955 402.748 459.733 479.202 458.375 484.812C454.911 499.123 453.559 504.205 451.719 511.406C449.479 500.535 446.646 486.722 445.188 479.812C444.983 478.845 444.763 477.914 444.562 476.969C440.1 455.895 436.903 441.641 435.375 436.375C434.032 431.746 432.205 428.412 429.156 426.25C425.258 423.485 420.652 423.653 416.938 425.938C414.955 427.157 413.434 428.762 412.094 430.719C411.468 431.632 410.921 432.57 410.438 433.5C410.142 434.068 409.93 434.536 409.781 434.875C409.677 435.114 409.583 435.378 409.5 435.625C409.469 435.719 401.311 460.038 401.25 460.219C398.797 467.487 397.907 469.985 396.5 474.062L387.406 461C384.655 457.042 379.208 456.061 375.25 458.812C371.292 461.564 370.311 466.979 373.062 470.938C373.062 470.938 387.722 492.015 387.781 492.094C387.972 492.349 388.218 492.645 388.531 493C389.018 493.552 389.542 494.093 390.156 494.625C393.196 497.259 396.814 498.782 401.312 497.562C405.482 496.432 408.233 493.29 409.812 489.031C410.852 486.229 413.665 478.008 417.781 465.812C417.809 465.729 419.706 460.06 421.594 454.438C423.256 461.541 424.617 466.951 427.5 480.562C427.699 481.504 437.309 527.921 437.344 528.094C437.451 528.624 437.609 529.124 437.812 529.625C437.971 530.016 438.195 530.61 438.531 531.312C439.086 532.471 439.734 533.621 440.438 534.75C441.673 536.731 442.995 538.414 444.656 539.781C447.804 542.372 451.834 543.541 456.094 541.938C460.698 540.205 463.218 536.237 464.938 530.406C466.346 525.632 469.945 511.24 475.344 488.938C476.562 483.906 489.778 428.345 492.875 415.344C495.334 424.137 498.54 436.401 503.031 454.625C503.356 455.942 510.233 484.097 513.375 497.281C514.475 501.896 517.519 514.79 517.531 514.844C517.601 515.142 517.68 515.46 517.781 515.75C517.913 516.128 518.104 516.635 518.375 517.25C518.817 518.255 519.353 519.258 519.969 520.25C522.42 524.199 525.605 526.987 530.625 527.156C536.631 527.359 540.79 523.473 543.875 517.125C545.606 513.563 547.809 508.643 550.406 502.625C550.695 501.956 555.502 490.612 557.625 485.469C557.788 485.074 557.997 484.585 558.25 483.969L619.25 482.938C624.07 482.855 627.926 478.851 627.844 474.031C627.761 469.211 623.789 465.386 618.969 465.469L552.219 466.625C548.718 466.685 545.564 468.817 544.25 472.062C544.218 472.142 542.234 477.035 541.5 478.812C539.405 483.889 537.276 488.989 535.25 493.719C534.96 494.396 534.658 495.064 534.375 495.719C533.462 497.834 532.929 498.94 532.125 500.75C531.332 497.402 530.813 495.219 530.344 493.25C527.193 480.03 523.998 466.781 520.969 454.438C520.636 453.08 520.326 451.761 520 450.438C513.529 424.184 508.852 406.405 506.562 399.781C506.017 398.203 505.443 396.818 504.812 395.562C502.348 390.649 498.548 387.341 493.969 387.062Z" fill="url(#LinearGradient)" fill-rule="nonzero" opacity="1" stroke="none" vectornator:layerName="Curve 1"/>
</g>
<g id="Brain" vectornator:layerName="Brain">
<path d="M487.981 292.852C487.981 292.852 391.081 235.922 348.398 345.909C348.398 345.909 260.186 343.452 292.811 448.103C292.811 448.103 231.826 475.588 256.261 547.594C280.696 619.6 327.458 624.778 384.506 616.413" fill="none" opacity="1" stroke="#f4c065" stroke-linecap="round" stroke-linejoin="round" stroke-width="18.46"/>
<path d="M745.028 460.529C745.028 460.529 768.47 352.399 683.336 336.555C683.336 336.555 640.193 329.074 610.895 304.52C578.451 277.328 531.806 267.679 477.028 303.835C422.25 339.991 440.701 388.963 440.701 388.963" fill="none" opacity="1" stroke="#f4c065" stroke-linecap="round" stroke-linejoin="round" stroke-width="18.46"/>
<path d="M566.696 630.98C566.696 630.98 570.221 655.23 606.072 652.613C641.922 649.996 648.757 652.114 687.262 682.332C724.618 711.649 741.263 716.522 760.522 712.728C761.503 712.534 762.491 712.235 763.516 711.966C763.516 711.966 775.369 703.973 763.397 684.019C751.424 664.064 730.498 628.188 730.498 628.188C730.498 628.188 783.455 623.266 752.403 582.342C752.403 582.342 802.333 560.169 787.565 508.054C772.797 455.938 685.374 440.571 621.097 473.294" fill="none" opacity="1" stroke="#f4c065" stroke-linecap="round" stroke-linejoin="round" stroke-width="18.46"/>
<path d="M376.945 571.389C376.945 571.389 365.25 641.51 447.284 650.445C447.284 650.445 549.641 669.734 586.569 603.44C586.569 603.44 617.186 551.753 670.453 602.729" fill="none" opacity="1" stroke="#f4c065" stroke-linecap="round" stroke-linejoin="round" stroke-width="18.46"/>
</g>
</svg>
