<svg xmlns="http://www.w3.org/2000/svg" fill="none" viewBox="4.5 4.5 94.83 97.62">
<path d="M75.917 57.8401C78.6592 57.8401 81.3746 58.3802 83.9081 59.4296C86.4416 60.479 88.7435 62.0172 90.6826 63.9562C92.6216 65.8953 94.1598 68.1973 95.2092 70.7307C96.2586 73.2642 96.7987 75.9796 96.7987 78.7218H55.0018C55.0018 75.9768 55.5431 73.2587 56.5945 70.723C57.646 68.1873 59.1872 65.8839 61.1298 63.9444C63.0723 62.0049 65.3783 60.4675 67.9156 59.42C70.453 58.3726 73.1719 57.8357 75.917 57.8401Z" stroke="#222222" stroke-width="5" stroke-linecap="round" stroke-linejoin="round"/>
<path d="M75.9169 99.6203C73.1747 99.6203 70.4593 99.0802 67.9258 98.0308C65.3923 96.9814 63.0903 95.4433 61.1513 93.5042C59.2122 91.5652 57.6741 89.2632 56.6247 86.7297C55.5753 84.1962 55.0352 81.4808 55.0352 78.7386H96.832C96.832 81.4837 96.2908 84.2018 95.2393 86.7374C94.1878 89.2731 92.6467 91.5766 90.7041 93.5161C88.7615 95.4555 86.4556 96.993 83.9182 98.0404C81.3809 99.0878 78.6619 99.6247 75.9169 99.6203Z" stroke="#222222" stroke-width="5" stroke-linecap="round" stroke-linejoin="round"/>
<path d="M23.4916 31.6814L51.6999 52.585L38.6601 70.1816C37.2875 72.0338 35.5636 73.5975 33.5867 74.7834C31.6099 75.9694 29.4188 76.7543 27.1385 77.0935C24.8583 77.4326 22.5336 77.3193 20.2971 76.7601C18.0607 76.2008 15.9563 75.2065 14.1041 73.834C10.3635 71.062 7.87719 66.9176 7.19223 62.3124C6.50728 57.7073 7.67976 53.0187 10.4517 49.278L23.4916 31.6814Z" stroke="#222222" stroke-width="5" stroke-linecap="round" stroke-linejoin="round"/>
<path d="M51.6113 52.6042L23.403 31.7007L36.4428 14.1041C39.2148 10.3634 43.3592 7.87713 47.9644 7.19217C52.5695 6.50722 57.2581 7.6797 60.9988 10.4517C64.7302 13.2168 67.2138 17.3478 67.9058 21.9402C68.5978 26.5325 67.4418 31.212 64.691 34.9539L51.6113 52.6042Z" stroke="#222222" stroke-width="5" stroke-linecap="round" stroke-linejoin="round"/>
</svg>